<svg id="Layer_1" data-name="Layer 1" xmlns="http://www.w3.org/2000/svg" viewBox="0 0 23.06 23.04"><defs><style>.cls-1{fill:#fff;}</style></defs><path class="cls-1" d="M14.77,17.24l-1.16-1.16A8.35,8.35,0,1,1,16,13.71l1.2,1.19a1.4,1.4,0,0,1,.2-.26c.2-.21.31-.2.52,0L20.23,17c.93.93,1.87,1.85,2.79,2.79a2.36,2.36,0,0,1-.76,3.86,2.24,2.24,0,0,1-2.5-.43c-.82-.76-1.59-1.56-2.38-2.35l-2.77-2.75c-.3-.3-.3-.37,0-.66C14.67,17.35,14.72,17.28,14.77,17.24Zm2-8.13A7.8,7.8,0,1,0,9,16.91,7.81,7.81,0,0,0,16.81,9.11ZM15.1,17.75l1.41,1.43c1.18,1.18,2.36,2.36,3.55,3.52a1.82,1.82,0,1,0,2.5-2.65l-4.77-4.74a1.31,1.31,0,0,0-.13-.12Zm.07-1,1.47-1.47-.94-.94-1.47,1.48Z" transform="translate(-0.66 -0.76)"/><path class="cls-1" d="M9,15.43a6.34,6.34,0,1,1,6.32-6.32A6.32,6.32,0,0,1,9,15.43ZM3.23,9.09A5.78,5.78,0,1,0,9,3.31,5.79,5.79,0,0,0,3.23,9.09Z" transform="translate(-0.66 -0.76)"/><path class="cls-1" d="M4.53,9.1A4.44,4.44,0,0,1,5.76,6c.13-.14.26-.25.45-.1s.12.28,0,.47a3.88,3.88,0,0,0-.86,4l0,.09c0,.17,0,.33-.16.39s-.29,0-.36-.21A4.68,4.68,0,0,1,4.53,9.1Z" transform="translate(-0.66 -0.76)"/><path class="cls-1" d="M8,5.15a.74.74,0,0,1-.2.19c-.22.11-.45.2-.68.29a.26.26,0,0,1-.38-.12.25.25,0,0,1,.13-.36c.26-.12.52-.23.79-.33S8,4.9,8,5.15Z" transform="translate(-0.66 -0.76)"/></svg>