<svg id="Layer_1" data-name="Layer 1" xmlns="http://www.w3.org/2000/svg" viewBox="0 0 116.52 120.66"><defs><style>.cls-1{fill:#fff;}</style></defs><path class="cls-1" d="M277.29,356.68c1.82-3.95,3.63-7.91,5.47-11.85A11.46,11.46,0,0,1,291.7,338a11.81,11.81,0,0,1,12.72,16.42c-2.64,5.95-5.42,11.85-8.15,17.77q-9.28,20.14-18.56,40.31a7.81,7.81,0,0,0-.68,3.09c0,10.11,0,20.21,0,30.32,0,2.53-.82,3.35-3.35,3.35H192.41c-2.52,0-3.39-.86-3.39-3.34q0-45.12,0-90.24a4.45,4.45,0,0,1,1.4-3.39q11.17-11.1,22.28-22.28a4.44,4.44,0,0,1,3.39-1.41q28.77,0,57.54,0c2.61,0,3.39.81,3.39,3.46q0,12.29,0,24.58Zm-5.37,68.56c-.71.58-1.23,1-1.78,1.44-4.62,3.4-9.26,6.78-13.87,10.2-1,.74-2,1.31-3.24.78s-1.49-1.71-1.57-2.93c-.41-5.78-.88-11.55-1.2-17.33a7.92,7.92,0,0,1,.67-3.52c6.81-14.88,13.69-29.72,20.51-44.59a6,6,0,0,0,.53-2.39q0-15.82,0-31.65v-1.58H217.61v1.64q0,9.27,0,18.55c0,2.56-.76,3.31-3.35,3.31H194.14v86.94h77.78Zm12.41-71.82C274.86,374,265.45,394.34,256,414.84l3.94,1.79c9.48-20.56,18.89-40.94,28.33-61.39Zm-19.85,65.34,3.95,1.78,28.3-61.39-3.91-1.81Zm-52-81L198.21,352h14.28Zm74,11.1,12.28,5.66c2.73-4.7,1.87-9-2.08-11S288.68,343.48,286.47,348.87Zm-31,71.27.79,10.51,8.49-6.24Z" transform="translate(-189 -328.56)"/><path class="cls-1" d="M233,370.25h28.4a10.92,10.92,0,0,1,1.62.06,2.29,2.29,0,0,1,2.08,2.3,2.25,2.25,0,0,1-1.69,2.46,7,7,0,0,1-1.88.2H204.55a6.27,6.27,0,0,1-1.89-.21,2.29,2.29,0,0,1-1.64-2.63,2.25,2.25,0,0,1,2.08-2.12,10.92,10.92,0,0,1,1.62-.06Z" transform="translate(-189 -328.56)"/><path class="cls-1" d="M225.94,387.62H204.48a6.18,6.18,0,0,1-1.88-.22,2.29,2.29,0,0,1-1.59-2.53,2.26,2.26,0,0,1,1.87-2.16,7.85,7.85,0,0,1,1.75-.12h42.63a12,12,0,0,1,1.47.06,2.47,2.47,0,0,1,.13,4.88,8.6,8.6,0,0,1-1.61.09Z" transform="translate(-189 -328.56)"/><path class="cls-1" d="M226,395h21.17a10.38,10.38,0,0,1,1.76.09,2.23,2.23,0,0,1,2,2.23,2.27,2.27,0,0,1-1.76,2.54,4.33,4.33,0,0,1-1.3.16H204.15a4.73,4.73,0,0,1-1.45-.18,2.28,2.28,0,0,1-1.69-2.45,2.25,2.25,0,0,1,1.9-2.28,7.94,7.94,0,0,1,1.76-.11Z" transform="translate(-189 -328.56)"/><path class="cls-1" d="M245.33,363.74c-5.34,0-10.68,0-16,0a5.72,5.72,0,0,1-2.15-.31,2,2,0,0,1-1.33-2.48,5,5,0,0,1,1.78-2.07c.4-.29,1.13-.16,1.72-.16h32.19c.3,0,.59,0,.88,0a2.55,2.55,0,0,1,2.7,2.52,2.51,2.51,0,0,1-2.71,2.49c-4.12,0-8.24,0-12.35,0Z" transform="translate(-189 -328.56)"/><path class="cls-1" d="M245.33,352.19c-5.48,0-11,.05-16.46-.05a4,4,0,0,1-2.66-1.11,2.32,2.32,0,0,1,1.23-3.66,6.64,6.64,0,0,1,1.89-.2h32.93c1.74.08,2.84,1.07,2.84,2.53s-1.1,2.47-2.86,2.48C256.6,352.21,251,352.19,245.33,352.19Z" transform="translate(-189 -328.56)"/><path class="cls-1" d="M220,412.36c-5.3,0-10.6,0-15.89,0-1.84,0-2.88-.74-3.09-2.09a2.41,2.41,0,0,1,2.07-2.87,10.79,10.79,0,0,1,1.61-.07h30.76c.34,0,.69,0,1,0a2.51,2.51,0,1,1,0,5c-1.91.07-3.83,0-5.74,0Z" transform="translate(-189 -328.56)"/><path class="cls-1" d="M220,424.72h-15.3a7.44,7.44,0,0,1-1.89-.18,2.46,2.46,0,0,1,.23-4.77,7.85,7.85,0,0,1,1.46-.08h31.2a9.65,9.65,0,0,1,1.32.05,2.45,2.45,0,0,1,.19,4.86,7.84,7.84,0,0,1-1.61.12Z" transform="translate(-189 -328.56)"/></svg>