<svg id="Layer_1" data-name="Layer 1" xmlns="http://www.w3.org/2000/svg" viewBox="0 0 23.18 24"><defs><style>.cls-1{fill:#fff;}</style></defs><path class="cls-1" d="M18,5.59c.36-.78.72-1.57,1.09-2.35a2.29,2.29,0,0,1,1.78-1.37,2.22,2.22,0,0,1,2.24.89,2.2,2.2,0,0,1,.29,2.37c-.53,1.19-1.08,2.36-1.62,3.54-1.23,2.67-2.47,5.34-3.69,8a1.43,1.43,0,0,0-.14.61c0,2,0,4,0,6,0,.51-.17.67-.67.67H1.09c-.5,0-.68-.17-.68-.67,0-6,0-12,0-17.94a.86.86,0,0,1,.28-.68Q2.91,2.51,5.12.28A.89.89,0,0,1,5.79,0H17.24c.52,0,.68.16.68.69V5.58ZM16.9,19.23l-.35.29c-.92.67-1.84,1.34-2.76,2a.62.62,0,0,1-.64.15.6.6,0,0,1-.32-.58c-.08-1.15-.17-2.3-.23-3.45a1.41,1.41,0,0,1,.13-.7c1.35-3,2.72-5.91,4.08-8.87a1.1,1.1,0,0,0,.1-.47q0-3.15,0-6.3V1H6.1V5c0,.51-.15.66-.67.66h-4V23H16.9ZM19.37,5,13.74,17.16l.78.36L20.15,5.31Zm-4,13,.79.36L21.84,6.08l-.78-.36ZM5.08,1.83,2.24,4.67H5.08ZM19.8,4l2.44,1.12c.54-.93.37-1.79-.41-2.18S20.24,3,19.8,4ZM13.63,18.22l.16,2.09,1.69-1.25Z" transform="translate(-0.41 0)"/><path class="cls-1" d="M9.16,8.29h6a.45.45,0,0,1,.41.46.44.44,0,0,1-.33.49,1.58,1.58,0,0,1-.38,0H3.5a1.17,1.17,0,0,1-.37,0,.45.45,0,0,1-.33-.52.45.45,0,0,1,.42-.43H9.16Z" transform="translate(-0.41 0)"/><path class="cls-1" d="M7.76,11.75H3.49a1.11,1.11,0,0,1-.37-.05.49.49,0,0,1,0-.93,1.35,1.35,0,0,1,.35,0h8.77a.46.46,0,0,1,.43.47.48.48,0,0,1-.4.5,1.77,1.77,0,0,1-.32,0Z" transform="translate(-0.41 0)"/><path class="cls-1" d="M7.77,13.21H12a2.08,2.08,0,0,1,.35,0,.46.46,0,0,1,.39.45.45.45,0,0,1-.35.5.75.75,0,0,1-.26,0H3.42a.9.9,0,0,1-.28,0,.46.46,0,0,1-.34-.49.44.44,0,0,1,.38-.45,1.35,1.35,0,0,1,.35,0Z" transform="translate(-0.41 0)"/><path class="cls-1" d="M11.62,7H8.43A1.25,1.25,0,0,1,8,6.93a.38.38,0,0,1-.26-.49A1,1,0,0,1,8.09,6c.08-.06.23,0,.34,0H15a.51.51,0,0,1,.54.5A.49.49,0,0,1,15,7H11.62Z" transform="translate(-0.41 0)"/><path class="cls-1" d="M11.62,4.7c-1.1,0-2.19,0-3.28,0a.79.79,0,0,1-.53-.22.47.47,0,0,1,.25-.73,1.17,1.17,0,0,1,.37,0H15c.35,0,.57.21.57.5a.5.5,0,0,1-.57.5Z" transform="translate(-0.41 0)"/><path class="cls-1" d="M6.58,16.67H3.42c-.37,0-.57-.15-.62-.42a.49.49,0,0,1,.42-.57,1.69,1.69,0,0,1,.32,0H9.86a.5.5,0,1,1,0,1c-.38,0-.76,0-1.14,0Z" transform="translate(-0.41 0)"/><path class="cls-1" d="M6.57,19.13h-3a1.58,1.58,0,0,1-.38,0,.45.45,0,0,1-.35-.51.46.46,0,0,1,.4-.44,1.38,1.38,0,0,1,.29,0H10a.5.5,0,0,1,.45.47.49.49,0,0,1-.41.5,1.66,1.66,0,0,1-.32,0Z" transform="translate(-0.41 0)"/></svg>